# xmcd CD database file
#
# Track frame offsets:
#	150
#	21167
#	41619
#	62973
#	91138
#	130155
#	152084
#	180117
#	202934
#	222144
#	246857
#	271094
#	289159
#
# Disc length: 4063 seconds
#
# Revision: 0
# Processed by: cddbd v1.4PL0 Copyright (c) Steve Scherf et al.
# Submitted via: CDex 1.50
#
DISCID=ad0fdd0d
DTITLE=Tom Browne - Collection
DYEAR=2002
DGENRE=Jazz
TTITLE0=Funkin' for Jamaica 
TTITLE1=Ghetto Horn
TTITLE2=Someday we'll  all be free
TTITLE3=Watermelon man
TTITLE4=In a sentimental mood
TTITLE5=Everybody loves de sunshine
TTITLE6=All blues
TTITLE7=Freedom jazz dance
TTITLE8=First flight
TTITLE9=That's what friends are for
TTITLE10=Un-break my heart
TTITLE11="Philly" Twist
TTITLE12=Bluesanova
EXTD=YEAR: 2002
EXTT0=
EXTT1=
EXTT2=
EXTT3=
EXTT4=
EXTT5=
EXTT6=
EXTT7=
EXTT8=
EXTT9=
EXTT10=
EXTT11=
EXTT12=
PLAYORDER=
